<?xml version="1.0"?>
<svg xmlns="http://www.w3.org/2000/svg" height="512px" viewBox="0 -8 512 511" width="512px" class=""><g><path d="m97.492188 458.992188c0 4.3125-3.496094 7.8125-7.8125 7.8125-4.316407 0-7.8125-3.5-7.8125-7.8125 0-4.316407 3.496093-7.816407 7.8125-7.816407 4.316406 0 7.8125 3.5 7.8125 7.816407zm0 0" data-original="#000000" class="active-path" data-old_color="#004d49" fill="#004d49"/><path d="m275.292969 111.117188v13.238281c0 4.140625 3.355469 7.5 7.5 7.5 4.140625 0 7.5-3.359375 7.5-7.5v-13.238281c0-4.140626-3.359375-7.5-7.5-7.5-4.144531 0-7.5 3.355468-7.5 7.5zm0 0" data-original="#000000" class="active-path" data-old_color="#004d49" fill="#004d49"/><path d="m421.585938 111.117188v13.238281c0 4.140625 3.359374 7.5 7.5 7.5 4.140624 0 7.5-3.359375 7.5-7.5v-13.238281c0-4.140626-3.359376-7.5-7.5-7.5-4.140626 0-7.5 3.355468-7.5 7.5zm0 0" data-original="#000000" class="active-path" data-old_color="#004d49" fill="#004d49"/><path d="m368.34375 118.496094c-3.011719 3.449218-7.535156 5.425781-12.40625 5.425781s-9.394531-1.976563-12.40625-5.425781c-2.726562-3.117188-7.464844-3.433594-10.582031-.710938-3.121094 2.726563-3.4375 7.464844-.710938 10.585938 5.859375 6.703125 14.5 10.550781 23.699219 10.550781 9.203125 0 17.839844-3.847656 23.703125-10.550781 2.722656-3.117188 2.40625-7.855469-.710937-10.582032-3.121094-2.726562-7.859376-2.410156-10.585938.707032zm0 0" data-original="#000000" class="active-path" data-old_color="#004d49" fill="#004d49"/><path d="m246.265625 36.15625c-29.914063 23.417969-46.386719 54.71875-46.386719 88.136719 0 33.421875 16.472656 64.722656 46.386719 88.140625 27.339844 21.398437 62.972656 33.851562 101.117187 35.472656-2.75 11.285156-10.140624 26.363281-13.375 32.289062-2.695312 4.9375.984376 11.097657 6.582032 11.097657 20.113281 0 37.386718-9.296875 49.945312-26.882813 5.671875-7.941406 9.371094-16.199218 11.316406-21.757812 30.328126-7.394532 57.617188-22.289063 77.21875-42.214844 21.542969-21.902344 32.929688-48.234375 32.929688-76.140625 0-30.480469-14.046875-59.75-39.550781-82.421875-3.09375-2.753906-7.835938-2.476562-10.585938.621094-2.753906 3.097656-2.472656 7.835937.621094 10.589844 22.257813 19.78125 34.515625 45.074218 34.515625 71.207031 0 48.421875-42.1875 91.46875-102.59375 104.683593-2.753906.605469-4.941406 2.703126-5.652344 5.433594-.027344.105469-2.839844 10.65625-10.425781 21.28125-6.847656 9.585938-15.136719 15.859375-24.746094 18.75 4.574219-10.085937 9.855469-23.898437 9.855469-33.851562 0-4.144532-3.355469-7.5-7.5-7.5-77.78125 0-141.058594-48.808594-141.058594-108.796875s63.277344-108.792969 141.058594-108.792969c30.457031 0 59.46875 7.394531 83.902344 21.390625 3.59375 2.058594 8.175781.816406 10.234375-2.777344 2.058593-3.59375.8125-8.179687-2.78125-10.234375-26.699219-15.292968-58.289063-23.378906-91.355469-23.378906-41.347656 0-80.296875 12.660156-109.671875 35.65625zm0 0" data-original="#000000" class="active-path" data-old_color="#004d49" fill="#004d49"/><path d="m7.5 495.984375h246.789062c19.320313 0 35.039063-15.71875 35.039063-35.039063 0-11.160156-5.242187-21.117187-13.398437-27.539062 8.15625-6.421875 13.398437-16.382812 13.398437-27.546875 0-11.15625-5.242187-21.117187-13.394531-27.535156 8.152344-6.421875 13.394531-16.378907 13.394531-27.539063 0-11.164062-5.242187-21.125-13.398437-27.546875 8.15625-6.421875 13.398437-16.378906 13.398437-27.539062 0-19.320313-15.71875-35.039063-35.039063-35.039063h-26.8125v-24.167968c0-19.320313-15.714843-35.039063-35.035156-35.039063-19.328125 0-35.046875 15.71875-35.046875 35.039063v24.171874h-149.894531c-4.140625 0-7.5 3.359376-7.5 7.5v220.320313c0 4.144531 3.359375 7.5 7.5 7.5zm266.828125-200.285156c0 11.050781-8.988281 20.039062-20.039063 20.039062-4.140624 0-7.5 3.359375-7.5 7.5 0 4.144531 3.359376 7.5 7.5 7.5 11.050782 0 20.039063 8.992188 20.039063 20.046875 0 11.050782-8.988281 20.039063-20.039063 20.039063-4.140624 0-7.5 3.359375-7.5 7.5 0 4.144531 3.359376 7.5 7.5 7.5 11.050782 0 20.039063 8.988281 20.039063 20.039062 0 11.054688-8.988281 20.046875-20.039063 20.046875-4.140624 0-7.5 3.359375-7.5 7.5 0 4.144532 3.359376 7.5 7.5 7.5 11.050782 0 20.039063 8.988282 20.039063 20.039063 0 11.046875-8.988281 20.039062-20.039063 20.039062h-130.390624v-205.324219h130.390624c11.050782 0 20.039063 8.988282 20.039063 20.035157zm-101.9375-59.207031c0-11.050782 8.996094-20.039063 20.046875-20.039063s20.039062 8.988281 20.039062 20.039063v24.171874h-40.085937zm-157.390625 39.171874h40.457031v40.625c0 4.144532 3.359375 7.5 7.5 7.5 4.144531 0 7.5-3.355468 7.5-7.5v-40.625h38.441407v205.320313h-38.441407v-134.816406c0-4.140625-3.355469-7.5-7.5-7.5-4.140625 0-7.5 3.359375-7.5 7.5v134.816406h-40.457031zm0 0" data-original="#000000" class="active-path" data-old_color="#004d49" fill="#004d49"/></g> </svg>
